<svg width="90" height="90" viewBox="0 0 90 90" fill="none" xmlns="http://www.w3.org/2000/svg">
    <path d="M0 45C0 20.1472 20.1472 0 45 0C69.8528 0 90 20.1472 90 45C90 69.8528 69.8528 90 45 90C20.1472 90 0 69.8528 0 45Z" fill="#BF4C0C" fill-opacity="0.2"/>
    <g clip-path="url(#clip0_842_2043)">
        <path d="M60.5877 54.3996L47.4618 32.6314C46.9447 31.7738 46.0014 31.2411 45 31.2411C43.9985 31.2411 43.0552 31.7738 42.538 32.6314L29.4122 54.3996C28.8778 55.286 28.862 56.3965 29.3709 57.2978C29.88 58.199 30.8391 58.7589 31.8741 58.7589H58.1258C59.1608 58.7589 60.12 58.199 60.6291 57.2977C61.138 56.3964 61.1222 55.2859 60.5877 54.3996ZM58.815 56.2733C58.6748 56.5213 58.4108 56.6755 58.1258 56.6755H31.8741C31.5892 56.6755 31.3251 56.5214 31.185 56.2733C31.0449 56.0252 31.0493 55.7194 31.1963 55.4755L44.3223 33.7072C44.4647 33.4712 44.7243 33.3245 45 33.3245C45.2757 33.3245 45.5353 33.4712 45.6777 33.7072L58.8035 55.4755C58.9507 55.7195 58.9551 56.0252 58.815 56.2733Z" fill="#BF4C0C"/>
        <path d="M45.0096 39.8128C44.2171 39.8128 43.5986 40.2381 43.5986 40.9919C43.5986 43.2921 43.8692 46.5973 43.8692 48.8975C43.8693 49.4967 44.3912 49.7479 45.0097 49.7479C45.4736 49.7479 46.1308 49.4967 46.1308 48.8975C46.1308 46.5974 46.4013 43.2921 46.4013 40.9919C46.4013 40.2381 45.7635 39.8128 45.0096 39.8128Z" fill="#BF4C0C"/>
        <path d="M45.0294 51.0816C44.179 51.0816 43.541 51.7581 43.541 52.57C43.541 53.3625 44.1789 54.0584 45.0294 54.0584C45.8219 54.0584 46.4985 53.3625 46.4985 52.57C46.4985 51.7581 45.8218 51.0816 45.0294 51.0816Z" fill="#BF4C0C"/>
    </g>
    <defs>
        <clipPath id="clip0_842_2043">
            <rect width="32" height="32" fill="white" transform="translate(29 29)"/>
        </clipPath>
    </defs>
</svg>
