<svg width="64" height="64" viewBox="0 0 64 64" fill="none" xmlns="http://www.w3.org/2000/svg">
<path fill-rule="evenodd" clip-rule="evenodd" d="M32.0003 8.00033C18.7455 8.00033 8.00033 18.7455 8.00033 32.0003C8.00033 45.2552 18.7455 56.0003 32.0003 56.0003C45.2552 56.0003 56.0003 45.2552 56.0003 32.0003C56.0003 18.7455 45.2552 8.00033 32.0003 8.00033ZM2.66699 32.0003C2.66699 15.8 15.8 2.66699 32.0003 2.66699C48.2007 2.66699 61.3337 15.8 61.3337 32.0003C61.3337 48.2007 48.2007 61.3337 32.0003 61.3337C15.8 61.3337 2.66699 48.2007 2.66699 32.0003Z" fill="#8F8F8F"/>
<path fill-rule="evenodd" clip-rule="evenodd" d="M23.4586 35.7225C22.5728 34.554 20.9082 34.3195 19.7337 35.2003C18.5555 36.084 18.3167 37.7554 19.2003 38.9337L21.3337 37.3337C19.2003 38.9337 19.1997 38.9328 19.2003 38.9337L19.203 38.9372L19.2061 38.9413L19.2134 38.951L19.2326 38.9761L19.2894 39.0488C19.3354 39.1068 19.3977 39.1839 19.476 39.2771C19.6323 39.4635 19.8537 39.7159 20.1375 40.0121C20.7031 40.6022 21.5295 41.3795 22.5985 42.157C24.7264 43.7045 27.9322 45.3337 32.0003 45.3337C36.0684 45.3337 39.2743 43.7045 41.4021 42.157C42.4712 41.3795 43.2976 40.6022 43.8631 40.0121C44.147 39.7159 44.3683 39.4635 44.5247 39.2771C44.603 39.1839 44.6653 39.1068 44.7112 39.0488L44.768 38.9761L44.7872 38.951L44.7946 38.9413L44.7976 38.9372C44.7983 38.9364 44.8003 38.9337 42.667 37.3337L44.8003 38.9337C45.684 37.7554 45.4452 36.084 44.267 35.2003C43.0925 34.3195 41.4278 34.554 40.542 35.7225L40.5297 35.7383C40.5138 35.7584 40.4836 35.7959 40.4395 35.8485C40.3511 35.9538 40.2078 36.1181 40.0125 36.3219C39.6197 36.7318 39.0295 37.2879 38.2652 37.8437C36.7264 38.9628 34.5989 40.0003 32.0003 40.0003C29.4017 40.0003 27.2743 38.9628 25.7354 37.8437C24.9712 37.2879 24.3809 36.7318 23.9881 36.3219C23.7928 36.1181 23.6496 35.9538 23.5612 35.8485C23.517 35.7959 23.4869 35.7584 23.471 35.7383L23.4586 35.7225Z" fill="#8F8F8F"/>
<path fill-rule="evenodd" clip-rule="evenodd" d="M21.3337 24.0003C21.3337 22.5276 22.5276 21.3337 24.0003 21.3337H24.027C25.4998 21.3337 26.6937 22.5276 26.6937 24.0003C26.6937 25.4731 25.4998 26.667 24.027 26.667H24.0003C22.5276 26.667 21.3337 25.4731 21.3337 24.0003Z" fill="#8F8F8F"/>
<path fill-rule="evenodd" clip-rule="evenodd" d="M37.3337 24.0003C37.3337 22.5276 38.5276 21.3337 40.0003 21.3337H40.027C41.4997 21.3337 42.6937 22.5276 42.6937 24.0003C42.6937 25.4731 41.4997 26.667 40.027 26.667H40.0003C38.5276 26.667 37.3337 25.4731 37.3337 24.0003Z" fill="#8F8F8F"/>
</svg>
