<svg width="29" height="28" viewBox="0 0 29 28" fill="none" xmlns="http://www.w3.org/2000/svg">
<g clip-path="url(#clip0_191_116)">
<path d="M15.5068 24.1001L15.4424 24.1694C15.1497 24.4567 14.7486 24.6215 14.3271 24.6216C13.9581 24.6216 13.6047 24.4951 13.3261 24.271L13.2119 24.1694C13.1892 24.1472 13.1675 24.1235 13.1465 24.1001H15.5068ZM14.3271 4.93604C18.8937 4.93628 22.571 8.58005 22.5713 13.0444V21.0737H23.5927V21.0747C23.593 21.0748 23.5942 21.0753 23.5957 21.0767C23.5972 21.0782 23.5985 21.0793 23.5986 21.0796V21.0854L23.5927 21.0913H5.06052L5.05466 21.0854V21.0796L5.05759 21.0767C5.05904 21.0752 5.06022 21.0748 5.06052 21.0747V21.0737H6.082V13.0444C6.08225 8.5799 9.76029 4.93604 14.3271 4.93604ZM14.3271 4.95361C9.81691 4.95361 6.13693 8.5629 6.13669 13.0444V21.0737H22.5166V13.0444C22.5163 8.56305 18.8371 4.95386 14.3271 4.95361Z" stroke="#9DB2CE" stroke-width="2"/>
</g>
<defs>
<clipPath id="clip0_191_116">
<rect width="27.392" height="27.392" fill="white" transform="translate(0.630676 0.512024)"/>
</clipPath>
</defs>
</svg>
