<svg width="90" height="90" viewBox="0 0 90 90" fill="none" xmlns="http://www.w3.org/2000/svg">
    <rect width="90" height="90" rx="45" fill="#219942" fill-opacity="0.2"/>
    <g clip-path="url(#clip0_842_1904)">
        <path d="M60.0847 33.3747C59.6139 32.9031 58.8501 32.9023 58.3794 33.3727L43.911 47.8028L38.6909 42.1333C38.2399 41.6436 37.4772 41.6119 36.9868 42.0629C36.4967 42.5139 36.4654 43.2769 36.9164 43.767L42.9868 50.3596C43.2091 50.6012 43.5202 50.7415 43.8483 50.7483C43.8571 50.7487 43.8656 50.7487 43.874 50.7487C44.1929 50.7487 44.4995 50.6221 44.7255 50.3969L60.0823 35.0804C60.5542 34.6101 60.555 33.8463 60.0847 33.3747Z" fill="#219942"/>
        <path d="M59.7939 43.7939C59.1278 43.7939 58.5879 44.3338 58.5879 45C58.5879 52.4927 52.4927 58.5879 45 58.5879C37.5077 58.5879 31.4121 52.4927 31.4121 45C31.4121 37.5077 37.5077 31.4121 45 31.4121C45.6661 31.4121 46.2061 30.8722 46.2061 30.2061C46.2061 29.5399 45.6661 29 45 29C36.1775 29 29 36.1775 29 45C29 53.8221 36.1775 61 45 61C53.8221 61 61 53.8221 61 45C61 44.3339 60.4601 43.7939 59.7939 43.7939Z" fill="#219942"/>
    </g>
    <defs>
        <clipPath id="clip0_842_1904">
            <rect width="32" height="32" fill="white" transform="translate(29 29)"/>
        </clipPath>
    </defs>
</svg>
