<svg width="12" height="6" viewBox="0 0 12 6" fill="none" xmlns="http://www.w3.org/2000/svg">
<path d="M10.8658 0.657502C10.7961 0.587206 10.7132 0.53141 10.6218 0.493334C10.5304 0.455257 10.4323 0.435654 10.3333 0.435654C10.2343 0.435654 10.1363 0.455257 10.0449 0.493334C9.9535 0.53141 9.87055 0.587206 9.80083 0.657502L6.36583 4.0925C6.29611 4.1628 6.21315 4.21859 6.12176 4.25667C6.03037 4.29475 5.93234 4.31435 5.83333 4.31435C5.73432 4.31435 5.63629 4.29475 5.5449 4.25667C5.4535 4.21859 5.37055 4.1628 5.30083 4.0925L1.86583 0.657502C1.79611 0.587206 1.71315 0.53141 1.62176 0.493334C1.53037 0.455257 1.43234 0.435654 1.33333 0.435654C1.23432 0.435654 1.13629 0.455257 1.04489 0.493334C0.953501 0.53141 0.87055 0.587206 0.800828 0.657502C0.661139 0.798024 0.582733 0.988113 0.582733 1.18625C0.582733 1.38439 0.661139 1.57448 0.800828 1.715L4.24333 5.1575C4.6652 5.57885 5.23708 5.81552 5.83333 5.81552C6.42958 5.81552 7.00145 5.57885 7.42333 5.1575L10.8658 1.715C11.0055 1.57448 11.0839 1.38439 11.0839 1.18625C11.0839 0.988113 11.0055 0.798024 10.8658 0.657502Z" fill="#30473F"/>
</svg>
